<svg width="24" height="23" viewBox="0 0 24 23" fill="none" xmlns="http://www.w3.org/2000/svg">
<path d="M5.81214 14.0095L5.81163 14.0091C5.07386 13.37 4.33336 12.7245 3.59218 12.0784C2.74429 11.3393 1.8955 10.5994 1.04887 9.86739C0.770039 9.62626 0.590389 9.42924 0.5 9.19241V8.88739C0.574354 8.67347 0.674097 8.53622 0.78618 8.44547C0.909435 8.34568 1.08723 8.27006 1.35768 8.24708L5.81214 14.0095ZM5.81214 14.0095C5.91518 14.099 6.03242 14.2255 6.09507 14.4072C6.15887 14.5923 6.14342 14.768 6.10989 14.9128L6.10984 14.913M5.81214 14.0095L6.10984 14.913M6.10984 14.913C5.78752 16.3018 5.47015 17.691 5.15255 19.0812C4.98117 19.8313 4.80973 20.5818 4.6374 21.3326C4.58749 21.5503 4.59384 21.7181 4.6339 21.8475C4.6721 21.9709 4.75111 22.0933 4.90897 22.2103C5.07226 22.3313 5.21785 22.3739 5.35073 22.3752C5.48847 22.3765 5.6524 22.3333 5.8455 22.2183L5.84561 22.2183M6.10984 14.913L5.84561 22.2183M5.84561 22.2183C6.26402 21.9692 6.68237 21.7205 7.10061 21.4718M5.84561 22.2183L7.10061 21.4718M18.1407 22.21L18.1407 22.2099C16.2582 21.0932 14.3764 19.9755 12.4991 18.8514L18.1407 22.21ZM18.1407 22.21C18.592 22.4778 18.9977 22.3799 19.2336 22.0758L18.1407 22.21ZM19.3706 21.3698L19.3706 21.3698C19.4349 21.651 19.3911 21.8725 19.2337 22.0757L19.3706 21.3698ZM19.3706 21.3698C19.2737 20.9464 19.1769 20.5231 19.0801 20.0998C18.6875 18.3826 18.2952 16.6662 17.8964 14.9513C17.8622 14.8046 17.8417 14.6227 17.9019 14.4291C17.9627 14.2335 18.085 14.0926 18.2071 13.9868L18.2075 13.9864M19.3706 21.3698L18.2075 13.9864M18.2075 13.9864C19.4531 12.9092 20.6937 11.8267 21.9353 10.7433M18.2075 13.9864L21.9353 10.7433M22.7674 8.26956L22.7675 8.26956C22.9696 8.28856 23.1114 8.34882 23.2119 8.42788C23.3114 8.50615 23.3985 8.62489 23.4569 8.80818L22.7674 8.26956ZM22.7674 8.26956C21.6922 8.16843 20.6165 8.07133 19.5395 7.97413C19.2945 7.95201 19.0494 7.92989 18.8042 7.90771L18.8041 7.9077M22.7674 8.26956L18.8041 7.9077M18.8041 7.9077C18.734 7.90134 18.6638 7.89499 18.5937 7.88863C17.746 7.81179 16.9005 7.73514 16.0542 7.66367L16.0542 7.66366M18.8041 7.9077L16.0542 7.66366M16.0542 7.66366C15.9165 7.65203 15.7598 7.61123 15.6187 7.4994C15.4841 7.39278 15.4117 7.25889 15.368 7.15658L15.3678 7.15623M16.0542 7.66366L15.3678 7.15623M15.3678 7.15623C14.9393 6.15255 14.5085 5.1497 14.0773 4.1462L14.0653 4.11818C13.6302 3.1055 13.1949 2.09215 12.7619 1.07765L12.7616 1.077M15.3678 7.15623L12.7616 1.077M12.7616 1.077C12.675 0.873221 12.5739 0.739907 12.4663 0.654883C12.3631 0.573368 12.2279 0.515296 12.0318 0.502052L12.0318 0.502051M12.7616 1.077L12.0318 0.502051M12.0318 0.502051C11.7069 0.480084 11.4254 0.636742 11.2419 1.0638L12.0318 0.502051ZM7.10061 21.4718C8.57105 20.5975 10.0401 19.724 11.5048 18.8428M7.10061 21.4718L11.5048 18.8428M11.5048 18.8428C11.6482 18.7564 11.8229 18.6865 12.029 18.6955M11.5048 18.8428L12.029 18.6955M12.029 18.6955C12.2263 18.7041 12.385 18.7829 12.4985 18.851L12.029 18.6955ZM21.9353 10.7433C22.3493 10.3821 22.7634 10.0208 23.1778 9.65954M21.9353 10.7433L23.1778 9.65954M23.1778 9.65954C23.3403 9.51774 23.429 9.38127 23.4698 9.25585C23.5092 9.13499 23.5151 8.99101 23.4569 8.80825L23.1778 9.65954ZM11.2419 1.06382C10.9445 1.75595 10.6474 2.44855 10.3502 3.14132C9.8608 4.2821 9.37121 5.42331 8.88002 6.56349C8.85932 6.61158 8.83915 6.66712 8.81321 6.74001L8.80839 6.75355C8.78525 6.81862 8.7571 6.89779 8.72532 6.97456C8.66317 7.12465 8.55015 7.36413 8.32222 7.52186C8.09456 7.6795 7.8306 7.70308 7.6692 7.71067C7.59562 7.71412 7.51932 7.71454 7.45568 7.71488C7.44374 7.71494 7.43224 7.71501 7.42129 7.71509C7.34543 7.71564 7.28774 7.71695 7.23819 7.72138C6.76001 7.76458 6.28159 7.80812 5.80299 7.85168C4.32254 7.98641 2.84031 8.1213 1.35774 8.24707L11.2419 1.06382Z" stroke="#FEB60D"/>
</svg>
