<svg width="41" height="36" viewBox="0 0 41 36" fill="none" xmlns="http://www.w3.org/2000/svg">
<path d="M19.9919 0.00126199C22.5444 0.00135503 25.097 -0.00218049 27.6494 0.00219239C30.9337 0.00777479 33.8135 2.69691 34.0623 5.97108C34.1973 7.74795 34.0935 9.5266 34.1242 11.3041C34.1258 11.3961 34.1135 11.4897 34.0962 11.5804C34.012 12.0223 33.6937 12.3145 33.3182 12.2997C32.9117 12.2836 32.611 11.9563 32.6073 11.4775C32.5976 10.1935 32.6073 8.90946 32.6008 7.62551C32.5977 7.02373 32.6075 6.42446 32.5254 5.82137C32.2209 3.58804 30.2349 1.71738 27.9903 1.52637C26.7993 1.42505 25.6104 1.46608 24.4208 1.46264C20.5843 1.45138 16.7477 1.45659 12.9112 1.45948C11.5782 1.4605 10.3303 1.74846 9.27821 2.62257C8.11261 3.59121 7.43639 4.82203 7.40113 6.35282C7.37126 7.65166 7.39015 8.95161 7.38764 10.251C7.38699 10.5759 7.39024 10.9008 7.38661 11.2256C7.37908 11.8916 7.08954 12.2911 6.61252 12.2997C6.12974 12.3083 5.86085 11.9303 5.86039 11.2342C5.85927 9.6562 5.85546 8.07824 5.86141 6.50038C5.87472 2.95351 8.83264 0.00563487 12.3806 0.00172719C14.9177 -0.000970966 17.4547 0.00126199 19.9919 0.00126199Z" fill="#6B253C"/>
<path d="M36.3348 35.3466C36.349 35.3409 36.3631 35.3352 36.3782 35.3297C37.7431 34.8235 38.5424 33.8391 38.7082 32.3733C38.7485 32.0167 38.838 31.6888 39.0379 31.3758C39.6516 30.4146 39.9594 29.3372 39.9755 28.2116C40.0122 25.6439 40.0052 23.0752 39.982 20.5072C39.9712 19.3103 39.1635 18.3751 37.9691 18.1989C36.8673 18.0363 35.7471 18.0641 34.6413 18.1936C34.215 18.2434 34.1069 18.1556 34.119 17.7347C34.1469 16.7608 34.1291 15.7855 34.1264 14.8108C34.1259 14.6412 34.1244 14.4689 34.0955 14.3026C34.0155 13.8402 33.6665 13.5405 33.2769 13.5822C32.8851 13.6242 32.6258 13.9355 32.6053 14.3954C32.5984 14.5498 32.6027 14.7048 32.6027 14.8595C32.6026 18.6809 32.6028 22.5023 32.6024 26.3238C32.6023 26.9291 32.6009 26.9303 31.9858 26.9303C24.0026 26.9306 16.0194 26.9306 8.03606 26.9303C7.38888 26.9303 7.38776 26.9293 7.38767 26.2549C7.3873 22.4954 7.38748 18.7358 7.38739 14.9762C7.38739 14.837 7.39083 14.6976 7.38497 14.5586C7.38041 14.4509 7.37427 14.3414 7.35073 14.2368C7.25918 13.8298 6.93252 13.5592 6.56826 13.5796C6.17619 13.6017 5.87214 13.9147 5.86693 14.3633C5.85325 15.539 5.86237 16.7149 5.85763 17.8907C5.85688 18.0635 5.91717 18.2871 5.58679 18.2239C4.54409 18.0246 3.48846 18.1263 2.43971 18.1332C0.984659 18.1428 0.00932182 19.1629 0.00820534 20.6091C0.00643758 23.0535 0.0258829 25.4982 0.000389985 27.9425C-0.0132869 29.2543 0.332915 30.4437 1.01694 31.5482C1.11454 31.7058 1.20898 31.8576 1.21875 32.0569C1.2983 33.6837 2.10458 34.7805 3.6162 35.3466H36.3348ZM34.1299 20.729C34.1322 19.9486 34.4204 19.6614 35.1901 19.6566C35.9329 19.6521 36.6757 19.6513 37.4185 19.657C38.1243 19.6624 38.4534 19.9775 38.4546 20.6695C38.4589 23.1919 38.4588 25.7144 38.4508 28.2367C38.4494 28.6817 38.3807 29.1219 38.1558 29.6207C37.4334 28.4085 36.4924 27.5991 35.2373 27.1761C35.1787 27.1564 35.12 27.1369 35.0608 27.1194C34.128 26.8429 34.1279 26.843 34.128 25.882C34.128 24.1644 34.1247 22.4467 34.1299 20.729ZM1.87152 29.494C1.85933 29.5141 1.81979 29.5175 1.76415 29.5409C1.49824 28.9653 1.48354 28.3419 1.47675 27.7392C1.4507 25.4377 1.46205 23.1357 1.46809 20.8338C1.47033 19.9827 1.80592 19.6574 2.64645 19.6557C3.38797 19.6541 4.1296 19.6492 4.87103 19.658C5.48863 19.6654 5.85409 20.0216 5.85642 20.6377C5.86395 22.5997 5.85837 24.5617 5.86098 26.5236C5.86125 26.7398 5.84451 26.9115 5.57097 26.9605C3.95961 27.249 2.72162 28.0896 1.87152 29.494ZM2.79298 31.3568C3.08057 29.7328 4.47626 28.5404 6.13312 28.4564C6.34934 28.4454 6.56612 28.4412 6.78263 28.4412C15.5863 28.4404 24.3901 28.4439 33.1938 28.4358C34.1454 28.4348 35.0416 28.5572 35.8169 29.167C36.7119 29.8711 37.1778 30.805 37.2357 31.9231C37.2982 33.1301 36.4062 34.0011 35.1328 34.0027C30.0734 34.0091 25.014 34.0053 19.9545 34.0053C14.9569 34.0063 9.95938 34.0035 4.96184 34.01C4.38629 34.0107 3.86173 33.9195 3.41068 33.5252C2.73195 32.9315 2.65045 32.1618 2.79298 31.3568Z" fill="#6B253C"/>
</svg>
