<svg width="26" height="26" viewBox="0 0 26 26" fill="none" xmlns="http://www.w3.org/2000/svg">
<path d="M0 4C0 1.79086 1.79086 0 4 0H25.0714V21.0714C25.0714 23.2806 23.2806 25.0714 21.0714 25.0714H0V4Z" fill="#ED1C24"/>
<path d="M20.9167 2.86572H4.87095C3.76781 2.86572 2.86523 3.76829 2.86523 4.87144V20.9171C2.86523 22.0203 3.76781 22.9229 4.87095 22.9229H20.9167C22.0198 22.9229 22.9224 22.0203 22.9224 20.9171V4.87144C22.9224 3.76829 22.0198 2.86572 20.9167 2.86572ZM19.9138 4.87144V7.88001H17.9081C17.3064 7.88001 16.9052 8.28115 16.9052 8.88286V10.8886H19.9138V13.8971H16.9052V20.9171H13.8967V13.8971H11.8909V10.8886H13.8967V8.38143C13.8967 6.47601 15.5012 4.87144 17.4067 4.87144H19.9138Z" fill="#ED1C24"/>
<path d="M12.6976 6.13133C13.6478 6.13136 14.598 6.13005 15.5481 6.13168C16.7706 6.13375 17.8426 7.13475 17.9352 8.35353C17.9854 9.01495 17.9468 9.67703 17.9583 10.3387C17.9589 10.3729 17.9543 10.4078 17.9478 10.4415C17.9165 10.606 17.798 10.7148 17.6582 10.7093C17.5069 10.7033 17.395 10.5815 17.3936 10.4032C17.39 9.92528 17.3936 9.44731 17.3912 8.96937C17.39 8.74536 17.3937 8.52229 17.3631 8.2978C17.2498 7.46647 16.5105 6.77014 15.675 6.69903C15.2316 6.66132 14.7891 6.67659 14.3463 6.67531C12.9182 6.67112 11.49 6.67306 10.062 6.67413C9.56573 6.67451 9.10123 6.7817 8.7096 7.10708C8.27572 7.46765 8.024 7.92581 8.01088 8.49563C7.99976 8.9791 8.00679 9.463 8.00586 9.94668C8.00561 10.0676 8.00683 10.1886 8.00548 10.3095C8.00267 10.5574 7.89489 10.7061 7.71733 10.7093C7.53762 10.7125 7.43753 10.5718 7.43735 10.3127C7.43694 9.72527 7.43552 9.1379 7.43774 8.55055C7.44269 7.23027 8.54374 6.13296 9.86444 6.1315C10.8089 6.1305 11.7532 6.13133 12.6976 6.13133Z" fill="white"/>
<path d="M18.7811 19.288C18.7864 19.2859 18.7916 19.2838 18.7972 19.2817C19.3053 19.0933 19.6028 18.7269 19.6645 18.1813C19.6796 18.0485 19.7129 17.9265 19.7873 17.81C20.0157 17.4522 20.1303 17.0511 20.1363 16.6321C20.15 15.6763 20.1474 14.7201 20.1387 13.7642C20.1347 13.3187 19.834 12.9706 19.3894 12.905C18.9793 12.8445 18.5623 12.8548 18.1507 12.903C17.992 12.9216 17.9518 12.8889 17.9563 12.7322C17.9667 12.3697 17.96 12.0066 17.959 11.6438C17.9589 11.5807 17.9583 11.5165 17.9475 11.4547C17.9178 11.2825 17.7878 11.171 17.6428 11.1865C17.497 11.2021 17.4004 11.318 17.3928 11.4892C17.3903 11.5467 17.3919 11.6043 17.3919 11.6619C17.3918 13.0844 17.3919 14.5069 17.3917 15.9294C17.3917 16.1547 17.3912 16.1552 17.1622 16.1552C14.1905 16.1553 11.2189 16.1553 8.24719 16.1552C8.00629 16.1552 8.00587 16.1548 8.00584 15.9038C8.0057 14.5043 8.00577 13.1049 8.00573 11.7054C8.00573 11.6536 8.00701 11.6017 8.00483 11.5499C8.00313 11.5099 8.00085 11.4691 7.99209 11.4301C7.95801 11.2787 7.83641 11.1779 7.70082 11.1855C7.55488 11.1937 7.4417 11.3102 7.43976 11.4772C7.43467 11.9149 7.43806 12.3526 7.4363 12.7903C7.43602 12.8546 7.45846 12.9378 7.33548 12.9143C6.94735 12.8401 6.5544 12.878 6.16401 12.8805C5.62239 12.8841 5.25933 13.2639 5.25891 13.8022C5.25826 14.7121 5.26549 15.6221 5.256 16.5319C5.25091 17.0203 5.37978 17.463 5.63441 17.8741C5.67074 17.9328 5.70589 17.9893 5.70952 18.0635C5.73914 18.669 6.03927 19.0773 6.60195 19.288H18.7811ZM17.9603 13.8468C17.9612 13.5563 18.0685 13.4494 18.355 13.4476C18.6315 13.4459 18.908 13.4456 19.1845 13.4478C19.4472 13.4498 19.5697 13.5671 19.5702 13.8247C19.5718 14.7636 19.5717 15.7025 19.5687 16.6414C19.5682 16.8071 19.5426 16.9709 19.4589 17.1566C19.19 16.7054 18.8398 16.4041 18.3726 16.2467C18.3507 16.2393 18.3289 16.2321 18.3069 16.2255C17.9596 16.1226 17.9596 16.1227 17.9596 15.765C17.9596 15.1256 17.9584 14.4862 17.9603 13.8468ZM5.95251 17.1095C5.94797 17.117 5.93325 17.1182 5.91254 17.1269C5.81356 16.9127 5.80809 16.6806 5.80556 16.4563C5.79586 15.5995 5.80009 14.7427 5.80234 13.8858C5.80317 13.569 5.92809 13.4479 6.24097 13.4473C6.51699 13.4467 6.79306 13.4448 7.06905 13.4481C7.29894 13.4509 7.43498 13.5835 7.43585 13.8128C7.43865 14.5431 7.43657 15.2735 7.43754 16.0038C7.43765 16.0843 7.43141 16.1482 7.32959 16.1664C6.72978 16.2738 6.26895 16.5867 5.95251 17.1095ZM6.29552 17.8029C6.40257 17.1984 6.9221 16.7545 7.53884 16.7233C7.61933 16.7192 7.70003 16.7176 7.78062 16.7176C11.0577 16.7173 14.3348 16.7186 17.6119 16.7156C17.9661 16.7152 18.2997 16.7608 18.5883 16.9877C18.9215 17.2498 19.0949 17.5975 19.1164 18.0137C19.1397 18.463 18.8077 18.7872 18.3337 18.7878C16.4504 18.7902 14.567 18.7888 12.6837 18.7888C10.8234 18.7891 8.96313 18.7881 7.10285 18.7905C6.88861 18.7908 6.69335 18.7568 6.52545 18.61C6.2728 18.389 6.24246 18.1025 6.29552 17.8029Z" fill="white"/>
</svg>
