<svg width="111" height="32" viewBox="0 0 111 32" fill="none" xmlns="http://www.w3.org/2000/svg">
<path d="M0.5 7C0.5 3.41015 3.41015 0.5 7 0.5H110.5V25C110.5 28.5899 107.59 31.5 104 31.5H0.5V7Z" fill="#E6E5E5" stroke="#A6A6A6"/>
<path d="M55.8532 5.00006C55.8525 9.77724 55.8513 14.5544 55.8511 19.3316C55.851 22.0188 55.8524 24.7059 55.8532 27.3931C55.5818 27.3931 55.3104 27.3931 55.039 27.3931C55.0331 27.3063 55.0221 27.2196 55.0221 27.1329C55.0213 19.842 55.0213 12.5511 55.0221 5.26026C55.0221 5.17349 55.0331 5.08677 55.039 5C55.3104 5.00006 55.5818 5.00006 55.8532 5.00006Z" fill="#999999"/>
<path d="M50.9509 20.3065C50.9509 20.4137 50.9509 20.4989 50.9509 20.584C50.9509 22.0411 50.9511 23.4982 50.9507 24.9554C50.9505 25.4194 50.8239 25.5346 50.3134 25.5349C49.0928 25.5354 47.8721 25.5355 46.6515 25.5348C46.1497 25.5345 46.0357 25.4285 46.0357 24.9683C46.0356 23.5039 46.0357 22.0395 46.0357 20.5751C46.0357 20.4958 46.0357 20.4165 46.0357 20.3066C45.6754 20.3066 45.3278 20.3066 44.9803 20.3066C44.8367 20.3066 44.6931 20.3071 44.5495 20.3065C44.0827 20.3048 43.9109 20.0991 44.0433 19.6928C44.3108 18.8719 44.5808 18.0517 44.8509 17.2315C45.3728 15.6465 45.8955 14.0618 46.4179 12.477C46.5221 12.1607 46.6261 12.0871 46.9777 12.0869C47.9829 12.0862 48.9881 12.0863 49.9933 12.0869C50.3402 12.0871 50.4488 12.1553 50.5471 12.4539C51.3486 14.8868 52.149 17.32 52.947 19.7538C53.0564 20.0876 52.882 20.3022 52.5033 20.3055C51.9948 20.3098 51.4862 20.3065 50.9509 20.3065ZM48.9034 24.7615C49.3256 24.7615 49.706 24.7615 50.1116 24.7615C50.1116 24.6655 50.1116 24.5803 50.1116 24.495C50.1116 23.0521 50.1115 21.6092 50.1116 20.1663C50.1116 19.6497 50.2144 19.5553 50.7775 19.5551C51.1802 19.555 51.583 19.5551 52.0186 19.5551C51.2751 17.2918 50.5434 15.0641 49.8122 12.838C48.9791 12.838 48.1813 12.8439 47.3838 12.8336C47.2038 12.8313 47.138 12.8912 47.0902 13.0384C46.5197 14.7922 45.9426 16.5442 45.368 18.2969C45.2342 18.705 45.1033 19.1138 44.9604 19.5551C45.431 19.5551 45.8669 19.5536 46.3028 19.5556C46.7303 19.5575 46.8517 19.6708 46.8518 20.0663C46.8524 21.5456 46.8521 23.025 46.8522 24.5043C46.8522 24.5888 46.8522 24.6733 46.8522 24.7591C47.2726 24.7591 47.66 24.7591 48.0734 24.7591C48.0734 23.0222 48.0734 21.2985 48.0734 19.5676C48.3595 19.5676 48.6192 19.5676 48.9034 19.5676C48.9034 21.3028 48.9034 23.0258 48.9034 24.7615Z" fill="#999999"/>
<path d="M48.5183 6.86359C49.8763 6.89526 50.9748 7.92394 50.9482 9.12832C50.9199 10.4019 49.72 11.4249 48.325 11.3442C47.1115 11.274 45.9648 10.2808 46.0321 8.96218C46.09 7.82894 47.2451 6.83391 48.5183 6.86359ZM50.1102 9.10237C50.109 8.2813 49.3792 7.61918 48.4785 7.62192C47.5984 7.62461 46.8692 8.28788 46.8559 9.09771C46.8428 9.8943 47.6017 10.5922 48.4849 10.5958C49.3705 10.5994 50.1113 9.91873 50.1102 9.10237Z" fill="#999999"/>
<path d="M64.847 20.3066C64.847 20.4233 64.847 20.5099 64.847 20.5965C64.847 22.0543 64.8473 23.5121 64.8468 24.9699C64.8467 25.4078 64.7124 25.5342 64.2405 25.5347C63.0034 25.5359 61.7663 25.5358 60.5291 25.5347C60.0502 25.5343 59.9255 25.4167 59.9254 24.974C59.9253 23.5088 59.9254 22.0438 59.9254 20.5787C59.9254 20.499 59.9254 20.4194 59.9254 20.3065C59.568 20.3065 59.2205 20.3068 58.8731 20.3065C58.4193 20.3059 58.2961 20.1921 58.296 19.773C58.2959 18.1038 58.2951 16.4346 58.2962 14.7655C58.2972 13.2298 59.5436 12.0905 61.2264 12.0869C62.0085 12.0852 62.7908 12.0843 63.5729 12.0872C65.1945 12.0931 66.4624 13.226 66.4758 14.709C66.4911 16.4144 66.4806 18.1202 66.4787 19.8258C66.4783 20.1627 66.3195 20.3042 65.9538 20.3062C65.596 20.308 65.2381 20.3066 64.847 20.3066ZM60.751 15.0779C60.751 18.3125 60.751 21.5355 60.751 24.7601C61.1716 24.7601 61.5595 24.7601 61.9736 24.7601C61.9736 23.025 61.9736 21.302 61.9736 19.5685C62.258 19.5685 62.516 19.5685 62.7974 19.5685C62.7974 21.3049 62.7974 23.0282 62.7974 24.7606C63.2073 24.7606 63.5937 24.7606 64.0131 24.7606C64.0131 21.5264 64.0131 18.3037 64.0131 15.0823C64.3056 15.0823 64.5644 15.0823 64.8562 15.0823C64.8562 16.5791 64.8562 18.06 64.8562 19.5391C65.1331 19.5391 65.3764 19.5391 65.6404 19.5391C65.6404 18.9703 65.642 18.4174 65.6401 17.8645C65.6361 16.7496 65.6477 15.6344 65.6192 14.52C65.5982 13.6956 64.7496 12.9093 63.8489 12.8736C62.973 12.8389 62.095 12.8444 61.2179 12.8416C61.0369 12.841 60.85 12.8623 60.6759 12.9066C59.6799 13.16 59.1154 13.8559 59.1133 14.8294C59.11 16.3306 59.1123 17.8319 59.113 19.3331C59.1131 19.4026 59.1214 19.472 59.1259 19.5408C59.403 19.5408 59.6544 19.5408 59.9339 19.5408C59.9339 18.0449 59.9339 16.563 59.9339 15.0778C60.2145 15.0779 60.4665 15.0779 60.751 15.0779Z" fill="#999999"/>
<path d="M62.3921 11.343C61.034 11.3452 59.9252 10.3385 59.9258 9.10349C59.9264 7.88073 61.0241 6.87526 62.3719 6.8629C63.7061 6.85065 64.8534 7.89181 64.8449 9.1071C64.8364 10.3312 63.7289 11.3407 62.3921 11.343ZM64.0019 9.11544C64.0059 8.29186 63.289 7.6263 62.3929 7.62176C61.4999 7.61721 60.7686 8.27506 60.7538 9.09614C60.7394 9.89512 61.4804 10.5818 62.3719 10.5957C63.2499 10.6093 63.9979 9.92999 64.0019 9.11544Z" fill="#999999"/>
</svg>
