<svg width="111" height="32" viewBox="0 0 111 32" fill="none" xmlns="http://www.w3.org/2000/svg">
<path d="M0.5 7C0.5 3.41015 3.41015 0.5 7 0.5H110.5V25C110.5 28.5899 107.59 31.5 104 31.5H0.5V7Z" fill="#E6E5E5" stroke="#A6A6A6"/>
<path d="M62.2412 14.3204C62.8508 14.3149 63.3944 14.415 63.8621 14.7707C64.4391 15.2096 64.7674 15.785 64.7744 16.5168C64.7778 16.8793 64.7864 17.2521 64.712 17.6032C64.5011 18.5982 63.6089 19.3474 62.5944 19.2995C61.9877 19.2708 61.7446 19.4776 61.4846 20.0186C60.2699 22.5451 58.2415 24.032 55.4481 24.3631C53.7558 24.5637 52.0606 24.5069 50.4812 23.7387C47.961 22.5127 46.4168 20.5213 46.098 17.7267C45.9378 16.3225 46.0196 14.8883 46.0307 13.468C46.0357 12.8349 46.6621 12.3032 47.3197 12.3002C48.4986 12.295 49.6774 12.2986 50.8562 12.2986C54.1682 12.2986 57.4802 12.2984 60.7921 12.2987C61.6626 12.2988 62.2317 12.8617 62.2409 13.7303C62.2429 13.916 62.2412 14.1017 62.2412 14.3204ZM54.1338 13.1964C51.9257 13.1964 49.7177 13.1958 47.5097 13.1969C47.0758 13.1972 46.9178 13.3562 46.9174 13.7877C46.9165 14.8167 46.9012 15.846 46.9213 16.8746C46.9556 18.6186 47.5645 20.1437 48.7671 21.4101C49.9388 22.6439 51.3804 23.349 53.0837 23.486C54.282 23.5824 55.4748 23.5755 56.636 23.1987C59.3767 22.3093 61.2247 19.8634 61.3044 16.9875C61.3334 15.9406 61.3146 14.8924 61.3156 13.8447C61.3161 13.3276 61.185 13.1966 60.6736 13.1966C58.4937 13.1962 56.3137 13.1964 54.1338 13.1964ZM62.2615 15.2665C62.2615 16.3222 62.2615 17.3628 62.2615 18.4015C63.1121 18.4758 63.7217 18.0487 63.8585 17.2809C63.8926 17.0901 63.8789 16.8899 63.8786 16.6941C63.8778 15.7468 63.2371 15.1722 62.2615 15.2665Z" fill="#999999"/>
<path d="M54.2725 26.223C52.0554 26.223 49.8384 26.2234 47.6214 26.2225C47.2818 26.2223 47.0939 26.0653 47.0878 25.7854C47.0824 25.5424 47.2446 25.3543 47.4862 25.3276C47.5417 25.3214 47.5983 25.3253 47.6545 25.3253C52.0698 25.3252 56.4852 25.3252 60.9006 25.3255C61.2316 25.3255 61.4094 25.4396 61.4575 25.6783C61.5176 25.9768 61.3108 26.2184 60.9798 26.2215C60.4372 26.2265 59.8947 26.223 59.3521 26.223C57.6588 26.223 55.9656 26.223 54.2725 26.223Z" fill="#999999"/>
<path d="M51.0636 9.10235C51.0513 9.79204 50.7393 10.2749 50.2536 10.6518C50.0747 10.7906 49.8605 10.7703 49.6907 10.6051C49.5111 10.4304 49.508 10.2238 49.6352 10.0188C49.6835 9.94114 49.7604 9.88091 49.8258 9.81431C50.2406 9.39192 50.2533 8.97515 49.8644 8.5289C49.2948 7.87528 49.2452 7.01849 49.7385 6.33825C49.7768 6.28545 49.8187 6.2346 49.8638 6.1875C50.0712 5.97113 50.3393 5.94623 50.535 6.123C50.7227 6.2925 50.7311 6.54382 50.5567 6.77617C50.226 7.21694 50.2384 7.57124 50.5989 7.98253C50.6174 8.00361 50.6371 8.02371 50.655 8.04523C50.9221 8.36645 51.0448 8.741 51.0636 9.10235Z" fill="#999999"/>
<path d="M54.2551 9.14652C54.1267 8.9213 54.0382 8.69525 53.8904 8.51908C53.3026 7.81859 53.2971 6.82597 53.8983 6.19553C54.1624 5.91863 54.56 5.95118 54.6694 6.28545C54.7154 6.42615 54.6764 6.64305 54.5921 6.76927C54.2774 7.24049 54.2825 7.56276 54.6592 8.00158C55.3532 8.80985 55.2446 9.92231 54.3026 10.6492C54.1135 10.7952 53.8907 10.7721 53.7194 10.5897C53.5491 10.4085 53.5515 10.2003 53.6915 10.0028C53.7608 9.90499 53.8753 9.83771 53.9387 9.73736C54.0493 9.56232 54.1361 9.37234 54.2551 9.14652Z" fill="#999999"/>
<path d="M58.8318 6.39869C58.746 6.56977 58.7071 6.68467 58.6386 6.77781C58.3155 7.21738 58.3261 7.57251 58.6891 7.9856C59.3772 8.76874 59.3168 9.88195 58.3614 10.6399C58.1738 10.7887 57.9569 10.774 57.774 10.6026C57.602 10.4414 57.5896 10.187 57.7414 9.9931C57.793 9.92725 57.8569 9.871 57.9159 9.811C58.3294 9.39003 58.3401 8.97529 57.9485 8.52552C57.3409 7.82758 57.3363 6.85004 57.9325 6.20265C58.0788 6.04372 58.26 5.94217 58.453 6.036C58.5999 6.10747 58.7025 6.26977 58.8318 6.39869Z" fill="#999999"/>
<path d="M48.9939 17.865C49.0635 17.9319 49.247 18.0298 49.3068 18.1778C49.7487 19.2699 50.4344 20.1661 51.3712 20.8783C51.6177 21.0657 51.6494 21.3321 51.4874 21.5397C51.3209 21.7531 51.0681 21.7827 50.8177 21.5967C49.7423 20.7976 48.9557 19.7753 48.4767 18.5225C48.347 18.183 48.5567 17.8603 48.9939 17.865Z" fill="#999999"/>
</svg>
