<svg width="14" height="14" viewBox="0 0 14 14" fill="none" xmlns="http://www.w3.org/2000/svg">
<path d="M7 0C5.61553 0 4.26216 0.410543 3.11101 1.17971C1.95987 1.94888 1.06266 3.04213 0.532846 4.32122C0.00303304 5.6003 -0.13559 7.00776 0.134506 8.36563C0.404603 9.7235 1.07129 10.9708 2.05026 11.9497C3.02922 12.9287 4.2765 13.5954 5.63437 13.8655C6.99224 14.1356 8.3997 13.997 9.67879 13.4672C10.9579 12.9373 12.0511 12.0401 12.8203 10.889C13.5895 9.73785 14 8.38447 14 7C14 5.14348 13.2625 3.36301 11.9497 2.05025C10.637 0.737498 8.85652 0 7 0ZM10.854 4.854L5.854 9.854C5.76024 9.94774 5.63309 10.0004 5.5005 10.0004C5.36792 10.0004 5.24077 9.94774 5.147 9.854L3.147 7.854C3.05223 7.76171 2.9979 7.63562 2.99591 7.50335C2.99391 7.37108 3.04441 7.24341 3.13635 7.1483C3.22828 7.05318 3.35417 6.99838 3.48643 6.99589C3.61869 6.9934 3.74655 7.04342 3.842 7.135L3.854 7.147L5.5 8.793L10.147 4.146C10.2413 4.05492 10.3676 4.00452 10.4987 4.00566C10.6298 4.0068 10.7552 4.05939 10.8479 4.15209C10.9406 4.24479 10.9932 4.3702 10.9943 4.5013C10.9955 4.6324 10.9451 4.7597 10.854 4.854Z" fill="#28AC19"/>
</svg>
