<svg width="13" height="16" viewBox="0 0 13 16" fill="none" xmlns="http://www.w3.org/2000/svg">
<path d="M12.541 8.71292C12.4066 8.53956 12.2342 8.39935 12.0371 8.30313C11.8399 8.20691 11.6234 8.15723 11.404 8.15791H10.067V7.13892H0V10.1679C0.000496591 10.9763 0.197003 11.7726 0.572678 12.4884C0.948352 13.2042 1.49199 13.8183 2.157 14.2779H0.00400162V15.1669H10.064V14.2779H7.91C8.36562 13.962 8.766 13.5732 9.095 13.1269H10.07C10.6242 13.1276 11.1627 12.9427 11.5996 12.6015C12.0364 12.2604 12.3464 11.7828 12.48 11.2449L12.804 9.94992C12.8577 9.73735 12.8619 9.51528 12.8163 9.30083C12.7707 9.08637 12.6765 8.88525 12.541 8.71292ZM11.941 9.73491L11.617 11.0299C11.531 11.3753 11.3318 11.6818 11.0513 11.9008C10.7707 12.1197 10.4249 12.2384 10.069 12.2379H9.617C9.91367 11.5882 10.0668 10.8822 10.066 10.1679V9.04791H11.403C11.4872 9.0478 11.5703 9.06691 11.6459 9.10378C11.7216 9.14064 11.7879 9.19431 11.8397 9.26067C11.8915 9.32702 11.9274 9.40432 11.9448 9.48668C11.9622 9.56904 11.9606 9.65429 11.94 9.73592L11.941 9.73491Z" fill="#F04046"/>
<path d="M5.0392 3.5C4.65109 3.50053 4.27902 3.65494 4.00458 3.92938C3.73014 4.20382 3.57572 4.57589 3.5752 4.964V5.984H4.46419V4.968C4.46419 4.81524 4.52488 4.66873 4.6329 4.56071C4.74092 4.45269 4.88743 4.392 5.04019 4.392H9.11919C10.0468 4.38989 10.9358 4.02046 11.5917 3.36454C12.2477 2.70862 12.6171 1.81961 12.6192 0.892V0H11.7302V0.889C11.7283 1.58108 11.4525 2.24428 10.9631 2.73357C10.4736 3.22285 9.81028 3.49842 9.11819 3.5H5.0392Z" fill="#F04046"/>
<path d="M2.42406 5.1C2.42486 4.4067 2.70062 3.74203 3.19086 3.25179C3.68109 2.76156 4.34577 2.48579 5.03906 2.485H9.11806C9.50618 2.48447 9.87825 2.33006 10.1527 2.05562C10.4271 1.78118 10.5815 1.40911 10.5821 1.021V0H9.69306V1.02C9.69306 1.17276 9.63238 1.31927 9.52436 1.42729C9.41634 1.53531 9.26983 1.596 9.11707 1.596H5.03906C4.11145 1.59811 3.22245 1.96754 2.56653 2.62346C1.91061 3.27938 1.54118 4.16839 1.53906 5.096V5.985H2.42806L2.42406 5.1Z" fill="#F04046"/>
</svg>
