<svg width="20" height="19" viewBox="0 0 20 19" fill="none" xmlns="http://www.w3.org/2000/svg">
<path d="M11.8083 7.86027C11.184 7.86027 10.5776 7.98136 10.006 8.22008C9.8168 8.29914 9.7275 8.51662 9.80652 8.70585C9.88557 8.89511 10.1031 8.9843 10.2923 8.90536C10.7727 8.70466 11.2828 8.60292 11.8083 8.60292C13.9787 8.60292 15.7444 10.3686 15.7444 12.539C15.7444 14.7093 13.9787 16.475 11.8083 16.475C9.63797 16.475 7.87229 14.7093 7.87229 12.539C7.87229 12.0142 7.97373 11.5048 8.17384 11.0251C8.25278 10.8358 8.16333 10.6184 7.97407 10.5394C7.78491 10.4606 7.56736 10.5499 7.48841 10.7392C7.25036 11.31 7.12964 11.9155 7.12964 12.539C7.12964 15.1188 9.22848 17.2176 11.8083 17.2176C14.3882 17.2176 16.487 15.1188 16.487 12.539C16.487 9.9591 14.3882 7.86027 11.8083 7.86027Z" fill="white"/>
<path d="M11.8083 15.5838C13.4873 15.5838 14.8532 14.2179 14.8532 12.539C14.8532 10.86 13.4873 9.4941 11.8083 9.4941C10.1294 9.4941 8.76349 10.86 8.76349 12.539C8.76349 14.2179 10.1294 15.5838 11.8083 15.5838ZM11.8083 10.2368C13.0778 10.2368 14.1106 11.2696 14.1106 12.539C14.1106 13.8084 13.0778 14.8412 11.8083 14.8412C10.5389 14.8412 9.50614 13.8084 9.50614 12.539C9.50614 11.2695 10.5389 10.2368 11.8083 10.2368Z" fill="white"/>
<path d="M17.1286 6.0779H15.999L14.7026 3.88386C14.6358 3.77079 14.5142 3.70142 14.3829 3.70142H9.23384C9.1025 3.70142 8.98096 3.77079 8.91416 3.88386L7.61768 6.0779H5.4956V5.63231C5.4956 4.89519 4.89595 4.29554 4.15883 4.29554C3.42172 4.29554 2.82207 4.89519 2.82207 5.63231V6.0779H1.88321C0.8448 6.0779 0 6.9227 0 7.96115V17.1167C0 18.1552 0.8448 19 1.88321 19H17.1286C18.167 19 19.0118 18.1552 19.0118 17.1167V7.96115C19.0118 6.9227 18.167 6.0779 17.1286 6.0779ZM9.44571 4.44407H14.171L15.1364 6.0779H8.48027L9.44571 4.44407ZM3.56471 5.63231C3.56471 5.30473 3.83125 5.03819 4.15883 5.03819C4.48642 5.03819 4.75295 5.30473 4.75295 5.63231V6.0779H3.56471V5.63231ZM18.2692 17.1167C18.2692 17.7457 17.7575 18.2573 17.1286 18.2573H1.88321C1.2543 18.2573 0.742649 17.7457 0.742649 17.1167V7.96115C0.742649 7.3322 1.2543 6.82055 1.88321 6.82055H17.1286C17.7575 6.82055 18.2691 7.3322 18.2691 7.96115V17.1167H18.2692Z" fill="white"/>
<path d="M11.8083 11.8149C12.2076 11.8149 12.5324 12.1397 12.5324 12.539C12.5324 12.7441 12.6987 12.9103 12.9037 12.9103C13.1088 12.9103 13.2751 12.7441 13.2751 12.539C13.2751 11.7302 12.6171 11.0722 11.8083 11.0722C11.6033 11.0722 11.437 11.2385 11.437 11.4436C11.437 11.6486 11.6033 11.8149 11.8083 11.8149Z" fill="white"/>
<path d="M11.8083 2.72452C12.0134 2.72452 12.1797 2.55824 12.1797 2.35319V0.371324C12.1797 0.166279 12.0134 0 11.8083 0C11.6033 0 11.437 0.166242 11.437 0.371324V2.35319C11.437 2.55828 11.6033 2.72452 11.8083 2.72452Z" fill="white"/>
<path d="M13.5753 2.72454C13.6703 2.72454 13.7654 2.68826 13.8379 2.61578L15.2003 1.25335C15.3453 1.10835 15.3453 0.873224 15.2002 0.728185C15.0552 0.58322 14.8201 0.58322 14.6751 0.728185L13.3127 2.09065C13.1677 2.23565 13.1677 2.47077 13.3127 2.61581C13.3853 2.68829 13.4803 2.72454 13.5753 2.72454Z" fill="white"/>
<path d="M9.77884 2.61581C9.85136 2.68829 9.94638 2.72457 10.0414 2.72457C10.1364 2.72457 10.2315 2.68829 10.304 2.61581C10.449 2.4708 10.449 2.23568 10.304 2.09064L8.94158 0.728217C8.79657 0.583289 8.56145 0.583252 8.41645 0.728217C8.27145 0.873219 8.27141 1.10834 8.41641 1.25338L9.77884 2.61581Z" fill="white"/>
<path d="M5.12429 9.12277H3.19341C2.98832 9.12277 2.82208 9.28905 2.82208 9.4941C2.82208 9.69918 2.98832 9.86542 3.19341 9.86542H5.12429C5.32938 9.86542 5.49562 9.69918 5.49562 9.4941C5.49562 9.28901 5.32938 9.12277 5.12429 9.12277Z" fill="white"/>
<path d="M8.76177 9.86538C8.85942 9.86538 8.95523 9.82564 9.02429 9.75658C9.09336 9.68751 9.13309 9.59204 9.13309 9.49405C9.13309 9.39639 9.09336 9.30059 9.02429 9.23152C8.95523 9.1625 8.85942 9.12273 8.76177 9.12273C8.66411 9.12273 8.56831 9.16246 8.49924 9.23152C8.4298 9.30059 8.39044 9.39643 8.39044 9.49405C8.39044 9.59171 8.4298 9.68751 8.49924 9.75658C8.56831 9.82564 8.66374 9.86538 8.76177 9.86538Z" fill="white"/>
</svg>
