<svg width="24" height="23" viewBox="0 0 24 23" fill="none" xmlns="http://www.w3.org/2000/svg">
<path d="M0 9.27492C0.124918 9.68365 0.405283 9.97186 0.721807 10.2456C2.31336 11.6217 3.8941 13.0095 5.48425 14.387C5.62513 14.5094 5.66552 14.6154 5.62278 14.7999C5.12639 16.9389 4.64127 19.0806 4.15005 21.2209C4.02184 21.78 4.14113 22.2635 4.61122 22.6119C5.08835 22.9655 5.59695 22.9483 6.10133 22.6479C7.98968 21.524 9.87991 20.4039 11.7626 19.2712C11.9481 19.1595 12.0698 19.1768 12.2416 19.28C14.1201 20.4048 16.0028 21.5231 17.8856 22.64C18.5224 23.0179 19.2169 22.9132 19.6288 22.3821C19.8894 22.0458 19.9514 21.6665 19.858 21.2583C19.3681 19.1179 18.8807 16.9767 18.3834 14.8378C18.3355 14.6322 18.3702 14.5071 18.5346 14.3646C20.1966 12.9273 21.8501 11.4802 23.5065 10.0363C23.9343 9.6631 24.1066 9.20065 23.9333 8.65647C23.7643 8.12582 23.3759 7.82454 22.8142 7.77175C21.4932 7.6475 20.1712 7.52932 18.8492 7.40974C17.9316 7.32659 17.0144 7.24298 16.0963 7.16544C15.9526 7.15329 15.884 7.09164 15.8277 6.95991C14.9622 4.93264 14.0872 2.9091 13.2217 0.881363C13.0015 0.363334 12.6394 0.0419601 12.0655 0.00318966C11.4921 -0.0355808 11.0342 0.280655 10.7825 0.866415C9.99496 2.69937 9.21023 4.53326 8.42079 6.36574C8.30855 6.62639 8.24093 6.97019 8.03758 7.11079C7.83048 7.25419 7.48108 7.19767 7.19367 7.22336C5.23441 7.4004 3.27561 7.58257 1.31541 7.74886C0.622719 7.80772 0.196301 8.15806 0 8.80874V9.27492Z" fill="#FEB60D"/>
</svg>
