<svg width="15" height="15" viewBox="0 0 15 15" fill="none" xmlns="http://www.w3.org/2000/svg">
<path d="M7.089 14.178C11.0041 14.178 14.178 11.0041 14.178 7.089C14.178 3.17385 11.0041 0 7.089 0C3.17385 0 0 3.17385 0 7.089C0 11.0041 3.17385 14.178 7.089 14.178Z" fill="#E24C4B"/>
<path d="M10.3213 10.321C10.1907 10.4477 10.0159 10.5186 9.83384 10.5186C9.65182 10.5186 9.47696 10.4477 9.34634 10.321L7.08634 8.06097L4.82634 10.321C4.69705 10.4503 4.52169 10.5229 4.33884 10.5229C4.156 10.5229 3.98063 10.4503 3.85134 10.321C3.72205 10.1917 3.64941 10.0163 3.64941 9.83347C3.64941 9.65063 3.72205 9.47527 3.85134 9.34598L6.11134 7.08598L3.85134 4.82597C3.72205 4.69668 3.64941 4.52133 3.64941 4.33848C3.64941 4.15563 3.72205 3.98027 3.85134 3.85098C3.98063 3.72168 4.156 3.64905 4.33884 3.64905C4.52169 3.64905 4.69705 3.72168 4.82634 3.85098L7.08634 6.11098L9.34634 3.85098C9.47564 3.72168 9.65099 3.64905 9.83384 3.64905C10.0167 3.64905 10.192 3.72168 10.3213 3.85098C10.4506 3.98027 10.5233 4.15563 10.5233 4.33848C10.5233 4.52133 10.4506 4.69668 10.3213 4.82597L8.06134 7.08598L10.3213 9.34598C10.4481 9.4766 10.519 9.65145 10.519 9.83347C10.519 10.0155 10.4481 10.1904 10.3213 10.321Z" fill="white"/>
</svg>
