<svg width="24" height="24" viewBox="0 0 24 24" fill="none" xmlns="http://www.w3.org/2000/svg">
<circle cx="11.7692" cy="11.7692" r="11.7692" fill="#6B253C"/>
<path d="M11.8 16.488C11.3093 16.488 11.064 16.2373 11.064 15.736V13.112H8.488C8.008 13.112 7.768 12.8773 7.768 12.408C7.768 11.9387 8.008 11.704 8.488 11.704H11.064V9.16C11.064 8.66933 11.3093 8.424 11.8 8.424C12.2907 8.424 12.536 8.66933 12.536 9.16V11.704H15.112C15.592 11.704 15.832 11.9387 15.832 12.408C15.832 12.8773 15.592 13.112 15.112 13.112H12.536V15.736C12.536 16.2373 12.2907 16.488 11.8 16.488Z" fill="white"/>
</svg>
