<svg width="41" height="36" viewBox="0 0 41 36" fill="none" xmlns="http://www.w3.org/2000/svg">
<path d="M1.5 19H6H7L6.5 6L8 2.5L11.5 1L28.5 0.5L32 3L33.5 6V19H37.5L39 20V29.5L38 30.5V32L36 34.5H4L2.5 33.5L2 31.5L1 30L0.5 20.5L1.5 19Z" fill="#999999"/>
<path d="M17.313 19.104C17.0963 19.104 16.9187 19.0477 16.78 18.935C16.6413 18.8137 16.559 18.6663 16.533 18.493C16.5157 18.311 16.5763 18.129 16.715 17.947L19.419 14.333L16.858 10.901C16.7193 10.7103 16.6587 10.5283 16.676 10.355C16.6933 10.173 16.7713 10.0257 16.91 9.913C17.0487 9.79167 17.222 9.731 17.43 9.731C17.7507 9.731 18.041 9.90867 18.301 10.264L20.368 13.124L22.435 10.264C22.695 9.90867 22.9897 9.731 23.319 9.731C23.5357 9.731 23.7133 9.78733 23.852 9.9C23.9907 10.0127 24.0687 10.16 24.086 10.342C24.1033 10.5153 24.0383 10.7017 23.891 10.901L21.33 14.333L24.021 17.947C24.1597 18.129 24.2203 18.311 24.203 18.493C24.1857 18.6663 24.1077 18.8137 23.969 18.935C23.8303 19.0477 23.6483 19.104 23.423 19.104C23.111 19.104 22.8207 18.922 22.552 18.558L20.368 15.568L18.197 18.558C17.9283 18.922 17.6337 19.104 17.313 19.104Z" fill="white"/>
<path d="M19.9919 0.00126199C22.5444 0.00135503 25.097 -0.00218049 27.6494 0.00219239C30.9337 0.00777479 33.8135 2.69691 34.0623 5.97108C34.1973 7.74795 34.0935 13.5266 34.1242 15.3041C34.1258 15.3961 34.1135 15.4897 34.0962 15.5804C34.012 16.0223 33.6937 16.3145 33.3182 16.2997C32.9117 16.2836 32.611 15.9563 32.6073 15.4775C32.5976 14.1935 32.6073 8.90946 32.6008 7.62551C32.5977 7.02373 32.6075 6.42446 32.5254 5.82137C32.2209 3.58804 30.2349 1.71738 27.9903 1.52637C26.7993 1.42505 25.6104 1.46608 24.4208 1.46264C20.5843 1.45138 16.7477 1.45659 12.9112 1.45948C11.5782 1.4605 10.3303 1.74846 9.27821 2.62257C8.11261 3.59121 7.43639 4.82203 7.40113 6.35282C7.37126 7.65166 7.39015 12.9516 7.38764 14.251C7.38699 14.5759 7.39024 14.9008 7.38661 15.2256C7.37908 15.8916 7.08954 16.2911 6.61252 16.2997C6.12974 16.3083 5.86085 15.9303 5.86039 15.2342C5.85927 13.6562 5.85546 8.07824 5.86141 6.50038C5.87472 2.95351 8.83264 0.00563487 12.3806 0.00172719C14.9177 -0.000970966 17.4547 0.00126199 19.9919 0.00126199Z" fill="#4F4F4F"/>
<path d="M36.3348 35.3465C36.349 35.3408 36.3631 35.3351 36.3782 35.3295C37.7431 34.8234 38.5424 33.8389 38.7082 32.3732C38.7485 32.0166 38.838 31.6887 39.0379 31.3757C39.6516 30.4145 39.9594 29.3371 39.9755 28.2115C40.0122 25.6438 40.0052 23.0751 39.982 20.5071C39.9712 19.3102 39.1635 18.375 37.9691 18.1987C36.8673 18.0362 35.7471 18.064 34.6413 18.1934C34.215 18.2433 34.1069 18.1555 34.119 17.7346C34.1469 16.7606 34.1291 15.7854 34.1264 14.8107C34.1259 14.6411 34.1244 14.4688 34.0955 14.3025C34.0155 13.8401 33.6665 13.5404 33.2769 13.5821C32.8851 13.6241 32.6258 13.9354 32.6053 14.3953C32.5984 14.5497 32.6027 14.7046 32.6027 14.8594C32.6026 18.6808 32.6028 22.5022 32.6024 26.3236C32.6023 26.929 32.6009 26.9302 31.9858 26.9302C24.0026 26.9305 16.0194 26.9305 8.03606 26.9302C7.38888 26.9302 7.38776 26.9291 7.38767 26.2548C7.3873 22.4952 7.38748 18.7357 7.38739 14.9761C7.38739 14.8368 7.39083 14.6975 7.38497 14.5585C7.38041 14.4508 7.37427 14.3413 7.35073 14.2366C7.25918 13.8297 6.93252 13.559 6.56826 13.5795C6.17619 13.6016 5.87214 13.9145 5.86693 14.3632C5.85325 15.5388 5.86237 16.7148 5.85763 17.8906C5.85688 18.0634 5.91717 18.2869 5.58679 18.2238C4.54409 18.0245 3.48846 18.1262 2.43971 18.1331C0.984659 18.1426 0.00932182 19.1628 0.00820534 20.6089C0.00643758 23.0534 0.0258829 25.4981 0.000389985 27.9424C-0.0132869 29.2542 0.332915 30.4435 1.01694 31.5481C1.11454 31.7056 1.20898 31.8575 1.21875 32.0568C1.2983 33.6836 2.10458 34.7804 3.6162 35.3465H36.3348ZM34.1299 20.7289C34.1322 19.9485 34.4204 19.6612 35.1901 19.6565C35.9329 19.6519 36.6757 19.6512 37.4185 19.6569C38.1243 19.6623 38.4534 19.9774 38.4546 20.6694C38.4589 23.1918 38.4588 25.7142 38.4508 28.2365C38.4494 28.6816 38.3807 29.1217 38.1558 29.6206C37.4334 28.4084 36.4924 27.5989 35.2373 27.176C35.1787 27.1563 35.12 27.1368 35.0608 27.1192C34.128 26.8428 34.1279 26.8429 34.128 25.8819C34.128 24.1643 34.1247 22.4466 34.1299 20.7289ZM1.87152 29.4939C1.85933 29.514 1.81979 29.5174 1.76415 29.5408C1.49824 28.9651 1.48354 28.3418 1.47675 27.7391C1.4507 25.4375 1.46205 23.1355 1.46809 20.8336C1.47033 19.9826 1.80592 19.6572 2.64645 19.6556C3.38797 19.654 4.1296 19.6491 4.87103 19.6579C5.48863 19.6652 5.85409 20.0215 5.85642 20.6376C5.86395 22.5995 5.85837 24.5616 5.86098 26.5235C5.86125 26.7397 5.84451 26.9114 5.57097 26.9604C3.95961 27.2488 2.72162 28.0895 1.87152 29.4939ZM2.79298 31.3566C3.08057 29.7327 4.47626 28.5402 6.13312 28.4563C6.34934 28.4453 6.56612 28.441 6.78263 28.441C15.5863 28.4403 24.3901 28.4437 33.1938 28.4356C34.1454 28.4347 35.0416 28.5571 35.8169 29.1669C36.7119 29.871 37.1778 30.8049 37.2357 31.923C37.2982 33.13 36.4062 34.0009 35.1328 34.0026C30.0734 34.009 25.014 34.0052 19.9545 34.0052C14.9569 34.0061 9.95938 34.0033 4.96184 34.0099C4.38629 34.0106 3.86173 33.9194 3.41068 33.525C2.73195 32.9313 2.65045 32.1617 2.79298 31.3566Z" fill="#4F4F4F"/>
</svg>
