<svg width="15" height="24" viewBox="0 0 15 24" fill="none" xmlns="http://www.w3.org/2000/svg">
<path d="M10.2633 24V23.946H4.7367V24H2.36835V23.946H1.18418C0.885617 23.9603 0.593557 23.8548 0.371713 23.6525C0.14987 23.4502 0.016248 23.1674 0 22.866L0 14.0676C0.0290818 12.7937 0.412192 11.5538 1.10559 10.4893C1.79899 9.42484 2.77473 8.57878 3.92141 8.0477C3.43996 7.63331 3.05218 7.11937 2.78425 6.54059C2.51632 5.96182 2.37449 5.3317 2.36835 4.69281C2.4382 3.38545 3.01694 2.15901 3.97837 1.28093C4.9398 0.402846 6.20593 -0.0556561 7.50067 0.00540209C8.79518 -0.0552893 10.061 0.403378 11.0221 1.28142C11.9832 2.15947 12.5618 3.38569 12.6316 4.69281C12.6253 5.33167 12.4834 5.96173 12.2155 6.54048C11.9476 7.11923 11.5599 7.6332 11.0786 8.0477C12.2251 8.57904 13.2006 9.42517 13.894 10.4896C14.5874 11.554 14.9706 12.7938 15 14.0676V22.866C14.9838 23.1674 14.8501 23.4502 14.6283 23.6525C14.4064 23.8548 14.1144 23.9603 13.8158 23.946H12.6316V24H10.2633ZM2.36835 14.0676V21.7832H12.6316V14.0676C12.5618 12.7605 11.9832 11.5343 11.0221 10.6562C10.061 9.77819 8.79518 9.31952 7.50067 9.38021C6.20593 9.31915 4.9398 9.77765 3.97837 10.6557C3.01694 11.5338 2.4382 12.7603 2.36835 14.0676ZM4.7367 4.69281C4.77405 5.39675 5.08545 6.05721 5.60299 6.53016C6.12052 7.0031 6.80219 7.25015 7.49933 7.21742C8.19647 7.25015 8.87815 7.0031 9.39568 6.53016C9.91321 6.05721 10.2246 5.39675 10.262 4.69281C10.2253 3.98863 9.91437 3.32769 9.39705 2.85421C8.87974 2.38073 8.19802 2.13315 7.50067 2.1655C6.80286 2.13242 6.12046 2.37967 5.60256 2.85322C5.08466 3.32678 4.77337 3.98814 4.7367 4.69281Z" fill="#ED1C24"/>
</svg>
