<svg width="16" height="21" viewBox="0 0 16 21" fill="none" xmlns="http://www.w3.org/2000/svg">
<path d="M14.628 19.692L13.192 20.142L11.951 20.53H5.433L4.166 16.483L0 3.17198L4.166 1.87198L8.614 0.47998L13.192 15.106L14.628 19.692Z" fill="#379A6B"/>
<path d="M11.5848 18.098L11.8958 19.092L7.91976 20.336L7.60876 19.342L6.61476 19.653L2.05176 5.075L3.04576 4.764L2.73476 3.77L6.71076 2.526L7.02176 3.52L8.01576 3.209L12.5768 17.789L11.5848 18.098Z" fill="#44C086"/>
<path d="M4.16602 0.39502H13.192V20.53H4.16602V0.39502Z" fill="#3BA673"/>
<path d="M10.7607 18.1001V19.1411H6.59471V18.1001H5.55371V2.82506H6.59471V1.78406H10.7607V2.82506H11.8017V18.1001H10.7607Z" fill="#44C086"/>
<path d="M8.3252 12C9.15362 12 9.8252 11.3284 9.8252 10.5C9.8252 9.67157 9.15362 9 8.3252 9C7.49677 9 6.8252 9.67157 6.8252 10.5C6.8252 11.3284 7.49677 12 8.3252 12Z" fill="#3BA673"/>
<path d="M15.9686 12.199V20.531H13.5386C12.6178 20.531 11.7347 20.1652 11.0835 19.5141C10.4324 18.863 10.0666 17.9799 10.0666 17.059H10.0736L7.8216 13.726C7.71188 13.5753 7.63365 13.404 7.59155 13.2224C7.54944 13.0407 7.54433 12.8524 7.57653 12.6688C7.60874 12.4851 7.67759 12.3098 7.77899 12.1534C7.88038 11.9969 8.01223 11.8624 8.1667 11.758C8.32116 11.6536 8.49508 11.5813 8.67807 11.5455C8.86105 11.5097 9.04938 11.5111 9.23181 11.5497C9.41423 11.5882 9.58704 11.6631 9.73991 11.7699C9.89278 11.8766 10.0226 12.013 10.1216 12.171L12.1486 14.971H13.1906V6.64404L15.8046 11.544C15.9123 11.7456 15.9686 11.9705 15.9686 12.199Z" fill="#F5CBAA"/>
</svg>
