<svg width="41" height="36" viewBox="0 0 41 36" fill="none" xmlns="http://www.w3.org/2000/svg">
<path d="M1.5 19H6H7L6.5 6L8 2.5L11.5 1L28.5 0.5L32 3L33.5 6V19H37.5L39 20V29.5L38 30.5V32L36 34.5H4L2.5 33.5L2 31.5L1 30L0.5 20.5L1.5 19Z" fill="#ED787D"/>
<path d="M19.9919 0.00126199C22.5444 0.00135503 25.097 -0.00218049 27.6494 0.00219239C30.9337 0.00777479 33.8135 2.69691 34.0623 5.97108C34.1973 7.74795 34.0935 13.5266 34.1242 15.3041C34.1258 15.3961 34.1135 15.4897 34.0962 15.5804C34.012 16.0223 33.6937 16.3145 33.3182 16.2997C32.9117 16.2836 32.611 15.9563 32.6073 15.4775C32.5976 14.1935 32.6073 8.90946 32.6008 7.62551C32.5977 7.02373 32.6075 6.42446 32.5254 5.82137C32.2209 3.58804 30.2349 1.71738 27.9903 1.52637C26.7993 1.42505 25.6104 1.46608 24.4208 1.46264C20.5843 1.45138 16.7477 1.45659 12.9112 1.45948C11.5782 1.4605 10.3303 1.74846 9.27821 2.62257C8.11261 3.59121 7.43639 4.82203 7.40113 6.35282C7.37126 7.65166 7.39015 12.9516 7.38764 14.251C7.38699 14.5759 7.39024 14.9008 7.38661 15.2256C7.37908 15.8916 7.08954 16.2911 6.61252 16.2997C6.12974 16.3083 5.86085 15.9303 5.86039 15.2342C5.85927 13.6562 5.85546 8.07824 5.86141 6.50038C5.87472 2.95351 8.83264 0.00563487 12.3806 0.00172719C14.9177 -0.000970966 17.4547 0.00126199 19.9919 0.00126199Z" fill="#ED1C24"/>
<path d="M36.3348 35.3463C36.349 35.3407 36.3631 35.335 36.3782 35.3294C37.7431 34.8233 38.5424 33.8388 38.7082 32.3731C38.7485 32.0165 38.838 31.6886 39.0379 31.3756C39.6516 30.4144 39.9594 29.337 39.9755 28.2114C40.0122 25.6437 40.0052 23.0749 39.982 20.5069C39.9712 19.3101 39.1635 18.3748 37.9691 18.1986C36.8673 18.0361 35.7471 18.0639 34.6413 18.1933C34.215 18.2432 34.1069 18.1554 34.119 17.7344C34.1469 16.7605 34.1291 15.7853 34.1264 14.8106C34.1259 14.641 34.1244 14.4687 34.0955 14.3024C34.0155 13.84 33.6665 13.5403 33.2769 13.582C32.8851 13.6239 32.6258 13.9353 32.6053 14.3952C32.5984 14.5496 32.6027 14.7045 32.6027 14.8592C32.6026 18.6807 32.6028 22.5021 32.6024 26.3235C32.6023 26.9288 32.6009 26.93 31.9858 26.93C24.0026 26.9303 16.0194 26.9303 8.03606 26.93C7.38888 26.93 7.38776 26.929 7.38767 26.2547C7.3873 22.4951 7.38748 18.7356 7.38739 14.976C7.38739 14.8367 7.39083 14.6973 7.38497 14.5583C7.38041 14.4507 7.37427 14.3412 7.35073 14.2365C7.25918 13.8296 6.93252 13.5589 6.56826 13.5794C6.17619 13.6014 5.87214 13.9144 5.86693 14.3631C5.85325 15.5387 5.86237 16.7146 5.85763 17.8905C5.85688 18.0633 5.91717 18.2868 5.58679 18.2237C4.54409 18.0244 3.48846 18.1261 2.43971 18.1329C0.984659 18.1425 0.00932182 19.1627 0.00820534 20.6088C0.00643758 23.0533 0.0258829 25.498 0.000389985 27.9422C-0.0132869 29.2541 0.332915 30.4434 1.01694 31.548C1.11454 31.7055 1.20898 31.8574 1.21875 32.0566C1.2983 33.6834 2.10458 34.7803 3.6162 35.3463H36.3348ZM34.1299 20.7288C34.1322 19.9483 34.4204 19.6611 35.1901 19.6564C35.9329 19.6518 36.6757 19.6511 37.4185 19.6567C38.1243 19.6621 38.4534 19.9773 38.4546 20.6693C38.4589 23.1917 38.4588 25.7141 38.4508 28.2364C38.4494 28.6814 38.3807 29.1216 38.1558 29.6205C37.4334 28.4083 36.4924 27.5988 35.2373 27.1759C35.1787 27.1561 35.12 27.1367 35.0608 27.1191C34.128 26.8427 34.1279 26.8428 34.128 25.8818C34.128 24.1642 34.1247 22.4465 34.1299 20.7288ZM1.87152 29.4938C1.85933 29.5139 1.81979 29.5173 1.76415 29.5407C1.49824 28.965 1.48354 28.3417 1.47675 27.7389C1.4507 25.4374 1.46205 23.1354 1.46809 20.8335C1.47033 19.9825 1.80592 19.6571 2.64645 19.6554C3.38797 19.6539 4.1296 19.6489 4.87103 19.6578C5.48863 19.6651 5.85409 20.0214 5.85642 20.6375C5.86395 22.5994 5.85837 24.5614 5.86098 26.5234C5.86125 26.7396 5.84451 26.9113 5.57097 26.9603C3.95961 27.2487 2.72162 28.0893 1.87152 29.4938ZM2.79298 31.3565C3.08057 29.7326 4.47626 28.5401 6.13312 28.4562C6.34934 28.4452 6.56612 28.4409 6.78263 28.4409C15.5863 28.4402 24.3901 28.4436 33.1938 28.4355C34.1454 28.4346 35.0416 28.5569 35.8169 29.1667C36.7119 29.8709 37.1778 30.8048 37.2357 31.9228C37.2982 33.1299 36.4062 34.0008 35.1328 34.0025C30.0734 34.0089 25.014 34.0051 19.9545 34.0051C14.9569 34.006 9.95938 34.0032 4.96184 34.0097C4.38629 34.0105 3.86173 33.9193 3.41068 33.5249C2.73195 32.9312 2.65045 32.1616 2.79298 31.3565Z" fill="#ED1C24"/>
</svg>
