<svg width="35" height="59" viewBox="0 0 35 59" fill="none" xmlns="http://www.w3.org/2000/svg">
<path d="M3.85936 59C2.82375 59 1.98438 58.1521 1.98438 57.1062V55.8697C1.98438 54.8238 2.8239 53.9758 3.85936 53.9758C4.89497 53.9758 5.73434 54.8238 5.73434 55.8697V57.1062C5.73434 58.1521 4.89481 59 3.85936 59Z" fill="#353B3E"/>
<path d="M30.4966 59C29.461 59 28.6216 58.1521 28.6216 57.1062V55.8697C28.6216 54.8238 29.4611 53.9758 30.4966 53.9758C31.5322 53.9758 32.3716 54.8238 32.3716 55.8697V57.1062C32.3716 58.1521 31.5322 59 30.4966 59Z" fill="#353B3E"/>
<path d="M12.0439 16.6999H10.1987V1.37574C10.1987 0.615966 10.8086 0 11.5608 0H12.0439V16.6999Z" fill="#CCD6DF"/>
<path d="M24.0083 16.6999H22.1631V0H22.6462C23.3984 0 24.0083 0.615966 24.0083 1.37574V16.6999Z" fill="#CCD6DF"/>
<path d="M22.6858 0H22.6461H22.163H12.0439H11.5608H11.5211C10.7908 0 10.1987 0.597989 10.1987 1.33564V1.37574V2.07714V6.98013H12.0439V3.41293H22.163V6.98013H24.0081V2.07714V1.37574V1.33564C24.0081 0.597989 23.4161 0 22.6858 0Z" fill="#3D4347"/>
<path d="M30.2381 56.6011H3.96825C1.77672 56.6011 0 54.8065 0 52.5929V17.0006C0 14.787 1.77672 12.9924 3.96825 12.9924H30.2381C32.4296 12.9924 34.2063 14.787 34.2063 17.0006V52.5929C34.2063 54.8065 32.4296 56.6011 30.2381 56.6011Z" fill="#E45353"/>
<path d="M30.2381 12.9924H3.96825C1.77672 12.9924 0 14.787 0 17.0006V52.5929C0 53.8111 0.538643 54.9013 1.3876 55.6365C6.36636 55.9351 19.4664 54.7332 27.3015 35.5484C27.3015 35.5484 32.1537 26.8791 32.4894 13.7006C31.8498 13.2542 31.0743 12.9924 30.2381 12.9924Z" fill="#E34A4B"/>
<path d="M6.647 46.2801C5.98956 46.2801 5.45654 45.7417 5.45654 45.0777V24.3955C5.45654 23.7315 5.98956 23.1931 6.647 23.1931C7.30445 23.1931 7.83746 23.7315 7.83746 24.3955V45.0777C7.83746 45.7417 7.30445 46.2801 6.647 46.2801Z" fill="#D24848"/>
<path d="M27.8374 46.2801C27.18 46.2801 26.647 45.7417 26.647 45.0777V24.3955C26.647 23.7315 27.18 23.1931 27.8374 23.1931C28.4949 23.1931 29.0279 23.7315 29.0279 24.3955V45.0777C29.0279 45.7417 28.4949 46.2801 27.8374 46.2801Z" fill="#D24848"/>
<path d="M13.7305 48.745C13.0731 48.745 12.54 48.2066 12.54 47.5426V21.75C12.54 21.086 13.0731 20.5476 13.7305 20.5476C14.3879 20.5476 14.921 21.086 14.921 21.75V47.5426C14.921 48.2068 14.3879 48.745 13.7305 48.745Z" fill="#D24848"/>
<path d="M20.7539 48.745C20.0965 48.745 19.5635 48.2066 19.5635 47.5426V21.75C19.5635 21.086 20.0965 20.5476 20.7539 20.5476C21.4114 20.5476 21.9444 21.086 21.9444 21.75V47.5426C21.9444 48.2068 21.4114 48.745 20.7539 48.745Z" fill="#D24848"/>
<path d="M5.93253 53.4902H2.8505V50.4889C2.8505 49.3857 1.96519 48.4915 0.872994 48.4915C0.559179 48.4915 0.263465 48.5672 0 48.6987V52.593C0 54.8066 1.77672 56.6012 3.96825 56.6012H7.57417C7.78622 56.283 7.91004 55.8999 7.91004 55.4876C7.91004 54.3844 7.02472 53.4902 5.93253 53.4902Z" fill="#474C50"/>
<path d="M31.7065 50.4888V53.4901H28.6245C27.5323 53.4901 26.647 54.3843 26.647 55.4875C26.647 55.8999 26.7708 56.2829 26.9828 56.6011H30.2383C32.4298 56.6011 34.2065 54.8065 34.2065 52.5929V48.564C34.0398 48.5179 33.8652 48.4912 33.684 48.4912C32.5918 48.4914 31.7065 49.3857 31.7065 50.4888Z" fill="#474C50"/>
<path d="M2.8505 18.5504V15.5491H5.93253C7.02472 15.5491 7.91004 14.6549 7.91004 13.5517C7.91004 13.3573 7.88114 13.17 7.83002 12.9924H3.96825C1.77672 12.9924 0 14.787 0 17.0006V20.3405C0.263617 20.4719 0.559179 20.5478 0.872994 20.5478C1.96519 20.5478 2.8505 19.6534 2.8505 18.5504Z" fill="#474C50"/>
<path d="M28.6243 15.5491H31.7064V18.5504C31.7064 19.6536 32.5917 20.5478 33.6839 20.5478C33.865 20.5478 34.0397 20.5211 34.2064 20.475V17.0006C34.2064 14.787 32.4297 12.9924 30.2381 12.9924H26.727C26.6757 13.17 26.647 13.3573 26.647 13.5517C26.6468 14.6547 27.5321 15.5491 28.6243 15.5491Z" fill="#474C50"/>
</svg>
